<svg viewBox="0 0 348 348" fill="none" xml:space="preserve" xmlns="http://www.w3.org/2000/svg"><path d="M5.079 5.776h336.913v337.67H5.08z" stroke-width="2" stroke="#000"/><path d="M282.734 40.554c0-8.376 6.966-15.165 15.56-15.165 4.126 0 8.084 1.597 11.001 4.441 2.918 2.844 4.558 6.702 4.558 10.724 0 8.376-6.966 15.165-15.56 15.165-8.593 0-15.559-6.79-15.559-15.165z" stroke-width="2" stroke="#000"/><path style="fill:#000;fill-opacity:1;stroke:#000;stroke-width:4.256;stroke-dasharray:none;stroke-opacity:1" d="M186.823 86.21h73.567v73.567h-73.567z"/><path style="fill:#3db6b7;fill-opacity:0;stroke:#000;stroke-width:4.25614;stroke-opacity:1" fill="none" d="M30.435 189.222h128.698V317.92H30.435z"/><path style="fill:#000;fill-opacity:1;stroke:#000;stroke-width:6.769;stroke-dasharray:none;stroke-opacity:1" d="M66.941 207.579h55.695v6.218H66.941z"/><path style="fill:#3db6b7;fill-opacity:0;stroke:#000;stroke-width:4.25614;stroke-opacity:1" fill="none" d="M30.435 189.222h128.698V317.92H30.435z" transform="translate(157.3)"/><path style="fill:#000;fill-opacity:1;stroke:#000;stroke-width:6.769;stroke-dasharray:none;stroke-opacity:1" d="M66.941 207.579h55.695v6.218H66.941z" transform="translate(157.3)"/><path style="fill:#3db6b7;fill-opacity:0;stroke:#000;stroke-width:4.25614;stroke-opacity:1" fill="none" d="M30.435 189.222h128.698V317.92H30.435z" transform="translate(0 -157.3)"/><path style="fill:#000;fill-opacity:1;stroke:#000;stroke-width:6.769;stroke-dasharray:none;stroke-opacity:1" d="M66.941 207.579h55.695v6.218H66.941z" transform="translate(0 -157.3)"/></svg>